<svg xmlns="http://www.w3.org/2000/svg" width="118" height="47" viewBox="0 0 118 47" fill="none">
<path d="M92.3856 10.4876C81.6815 10.4876 73.7864 18.2004 73.7864 28.509C73.7864 38.8176 81.6798 46.5303 92.3856 46.5303C103.091 46.5303 110.985 38.8176 110.985 28.509C110.985 18.2004 103.091 10.4876 92.3856 10.4876ZM92.3856 36.1859C88.0596 36.1859 85.0325 32.9065 85.0325 28.509C85.0325 24.1115 88.0596 20.9394 92.3856 20.9394C96.7115 20.9394 99.7386 24.2188 99.7386 28.509C99.7386 32.7991 96.7115 36.1859 92.3856 36.1859Z" fill="white"/>
<path d="M113.364 46.4467C115.482 46.4467 117.199 44.7297 117.199 42.6117C117.199 40.4936 115.482 38.7766 113.364 38.7766C111.246 38.7766 109.529 40.4936 109.529 42.6117C109.529 44.7297 111.246 46.4467 113.364 46.4467Z" fill="white"/>
<path d="M53.2614 10.4876C49.3019 10.4876 45.7276 11.5444 42.7959 13.3954V3.05176e-05H31.8873V45.8502H42.7959V43.6174C45.7293 45.4684 49.3019 46.5252 53.2614 46.5252C63.9637 46.5252 71.8571 38.8125 71.8571 28.5073C71.8571 18.202 63.9654 10.4893 53.2614 10.4893V10.4876ZM52.4091 36.1825C48.0849 36.1825 45.0578 32.9031 45.0578 28.5073C45.0578 24.1114 48.0849 20.9394 52.4091 20.9394C56.7334 20.9394 59.7605 24.2188 59.7605 28.5073C59.7605 32.7957 56.7334 36.1825 52.4091 36.1825Z" fill="white"/>
<path d="M21.9825 36.5421C18.9912 36.5421 16.8657 35.3882 16.8657 31.6418V20.4707H26.992V20.4605L24.9551 18.1782L22.8774 15.8499L24.9551 13.5216L26.9903 11.241V11.2086H16.5044V0.109131H5.51395V11.2086H0V20.4707H5.51395V33.4809C5.51395 42.7055 11.2444 46.5269 19.1719 46.5269C22.4155 46.5269 26.1278 45.7343 28.3606 44.5804L26.8624 35.6251C25.1324 36.3103 23.641 36.5438 21.9825 36.5438V36.5421Z" fill="white"/>
<path d="M22.8791 15.8499L24.9552 18.1782L26.992 20.4605L25.3284 15.9045L26.9903 11.241L24.9552 13.5233L22.8791 15.8499Z" fill="white"/>
</svg>